# This file uses centimeters as units for non-parametric coordinates.

g default
v 1.393400 1.531926 -0.512553
v 0.991684 1.531926 -0.914269
v 0.442930 1.531926 -1.061307
v -0.105823 1.531926 -0.914269
v -0.507539 1.531926 -0.512553
v -0.654577 1.531926 0.036201
v -0.507539 1.531926 0.584955
v -0.105823 1.531926 0.986670
v 0.442930 1.531926 1.133708
v 0.991684 1.531926 0.986670
v 1.393400 1.531926 0.584955
v 1.540438 1.531926 0.036201
v 1.082897 5.607386 -0.333284
v 0.812415 5.607386 -0.603766
v 0.442930 5.607386 -0.702769
v 0.073446 5.607386 -0.603766
v -0.197036 5.607386 -0.333284
v -0.296039 5.607386 0.036201
v -0.197036 5.607386 0.405685
v 0.073446 5.607386 0.676167
v 0.442930 5.607386 0.775170
v 0.812415 5.607386 0.676167
v 1.082897 5.607386 0.405685
v 1.181900 5.607386 0.036201
v 0.730441 1.531926 -0.129793
v 0.608924 1.531926 -0.251309
v 0.442930 1.531926 -0.295787
v 0.276937 1.531926 -0.251309
v 0.155420 1.531926 -0.129793
v 0.110943 1.531926 0.036201
v 0.155420 1.531926 0.202194
v 0.276937 1.531926 0.323711
v 0.442930 1.531926 0.368188
v 0.608924 1.531926 0.323711
v 0.730441 1.531926 0.202194
v 0.774918 1.531926 0.036201
v 0.896941 -0.044273 -0.225922
v 0.705054 -0.044273 -0.417810
v 0.442930 -0.044273 -0.488046
v 0.180807 -0.044273 -0.417810
v -0.011080 -0.044273 -0.225922
v -0.081316 -0.044273 0.036201
v -0.011080 -0.044273 0.298324
v 0.180807 -0.044273 0.490211
v 0.442930 -0.044273 0.560447
v 0.705054 -0.044273 0.490211
v 0.896941 -0.044273 0.298324
v 0.967177 -0.044273 0.036201
v 0.704249 2.646971 -0.114671
v 0.593803 2.646971 -0.225118
v 0.442930 2.646971 -0.265544
v 0.292058 2.646971 -0.225118
v 0.181612 2.646971 -0.114671
v 0.141186 2.646971 0.036201
v 0.181612 2.646971 0.187073
v 0.292058 2.646971 0.297519
v 0.442930 2.646971 0.337945
v 0.593803 2.646971 0.297519
v 0.704249 2.646971 0.187073
v 0.744675 2.646971 0.036201
v 1.953185 2.913889 -0.835745
v 1.314877 2.913889 -1.474054
v 0.442930 2.913889 -1.707691
v -0.429016 2.913889 -1.474054
v -1.067325 2.913889 -0.835745
v -1.300962 2.913889 0.036201
v -1.067325 2.913889 0.908147
v -0.429016 2.913889 1.546456
v 0.442930 2.913889 1.780093
v 1.314877 2.913889 1.546456
v 1.953185 2.913889 0.908147
v 2.186822 2.913889 0.036201
v 1.801581 4.459423 -0.748217
v 1.227348 4.459423 -1.322450
v 0.442930 4.459423 -1.532634
v -0.341487 4.459423 -1.322450
v -0.915720 4.459423 -0.748217
v -1.125904 4.459423 0.036201
v -0.915720 4.459423 0.820618
v -0.341487 4.459423 1.394851
v 0.442930 4.459423 1.605035
v 1.227348 4.459423 1.394851
v 1.801581 4.459423 0.820618
v 2.011765 4.459423 0.036201
v 0.442930 6.178671 0.036201
vt 0.797987 0.272633
vt 0.827943 0.210790
vt 0.951919 0.359525
vt 0.925835 0.383793
vt 0.872566 0.149987
vt 0.985646 0.345107
vt 0.858915 0.910292
vt 0.821858 0.840190
vt 0.954218 0.696194
vt 0.989691 0.714106
vt 0.796491 0.773524
vt 0.927537 0.669152
vt 0.778124 0.708863
vt 0.907940 0.636665
vt 0.765076 0.645387
vt 0.894264 0.600857
vt 0.756976 0.582619
vt 0.885981 0.563071
vt 0.753926 0.520295
vt 0.882999 0.524405
vt 0.756132 0.458265
vt 0.885375 0.485959
vt 0.763827 0.396401
vt 0.893164 0.448865
vt 0.777431 0.334558
vt 0.906510 0.414315
vt 0.451018 0.242025
vt 0.465929 0.296175
vt 0.391830 0.360870
vt 0.383951 0.333992
vt 0.419819 0.192290
vt 0.369890 0.318675
vt 0.454359 0.791860
vt 0.422564 0.835436
vt 0.380277 0.719035
vt 0.393916 0.704138
vt 0.470238 0.741218
vt 0.401340 0.676989
vt 0.476189 0.687427
vt 0.403987 0.642536
vt 0.476959 0.632340
vt 0.403909 0.603567
vt 0.475761 0.576679
vt 0.402640 0.561837
vt 0.474453 0.520702
vt 0.401099 0.518750
vt 0.473757 0.464522
vt 0.399653 0.475633
vt 0.473346 0.408229
vt 0.398155 0.433872
vt 0.471730 0.351973
vt 0.395949 0.395004
vt 0.068892 0.009886
vt 0.097048 0.009886
vt 0.097048 0.365100
vt 0.068892 0.365100
vt 0.125470 0.009886
vt 0.125470 0.365100
vt 0.154106 0.009886
vt 0.154105 0.365100
vt 0.182903 0.009886
vt 0.182903 0.365100
vt 0.211810 0.009886
vt 0.211810 0.365100
vt 0.240775 0.009886
vt 0.240775 0.365100
vt 0.269743 0.009886
vt 0.269743 0.365100
vt 0.298663 0.009886
vt 0.298663 0.365100
vt 0.327483 0.009886
vt 0.327483 0.365100
vt 0.356149 0.009886
vt 0.356149 0.365100
vt 0.013582 0.009886
vt 0.041053 0.009886
vt 0.041053 0.365100
vt 0.013582 0.365100
vt 0.635376 0.162709
vt 0.630070 0.240488
vt 0.636815 0.075988
vt 0.629346 0.876910
vt 0.618181 0.960923
vt 0.630297 0.799867
vt 0.626398 0.727018
vt 0.621087 0.656798
vt 0.616609 0.588130
vt 0.614326 0.520190
vt 0.614867 0.452267
vt 0.618207 0.383643
vt 0.623699 0.313456
vt 0.619075 0.593559
vt 0.588234 0.564526
vt 0.657830 0.521493
vt 0.576042 0.523963
vt 0.585764 0.482738
vt 0.614797 0.451897
vt 0.655360 0.439705
vt 0.696585 0.449427
vt 0.727426 0.478460
vt 0.739618 0.519023
vt 0.729896 0.560248
vt 0.700863 0.591088
vt 0.660300 0.603281
vn 0.828354 0.291731 -0.478250
vn 0.478250 0.291731 -0.828354
vn 0.392943 0.618371 -0.680598
vn 0.680598 0.618371 -0.392943
vn 0.478250 0.291731 -0.828354
vn 0.000000 0.291731 -0.956501
vn -0.000000 0.618371 -0.785887
vn 0.392943 0.618371 -0.680598
vn 0.000000 0.291731 -0.956501
vn -0.478250 0.291731 -0.828354
vn -0.392943 0.618371 -0.680598
vn -0.000000 0.618371 -0.785887
vn -0.478250 0.291731 -0.828354
vn -0.828354 0.291731 -0.478250
vn -0.680598 0.618371 -0.392943
vn -0.392943 0.618371 -0.680598
vn -0.828354 0.291731 -0.478250
vn -0.956501 0.291731 -0.000000
vn -0.785887 0.618371 -0.000000
vn -0.680598 0.618371 -0.392943
vn -0.956501 0.291731 -0.000000
vn -0.828354 0.291731 0.478250
vn -0.680598 0.618371 0.392943
vn -0.785887 0.618371 -0.000000
vn -0.828354 0.291731 0.478250
vn -0.478250 0.291731 0.828354
vn -0.392943 0.618371 0.680598
vn -0.680598 0.618371 0.392943
vn -0.478250 0.291731 0.828354
vn 0.000000 0.291731 0.956501
vn 0.000000 0.618371 0.785886
vn -0.392943 0.618371 0.680598
vn 0.000000 0.291731 0.956501
vn 0.478250 0.291731 0.828354
vn 0.392943 0.618371 0.680598
vn 0.000000 0.618371 0.785886
vn 0.478250 0.291731 0.828354
vn 0.828354 0.291731 0.478250
vn 0.680598 0.618371 0.392943
vn 0.392943 0.618371 0.680598
vn 0.828354 0.291731 0.478250
vn 0.956501 0.291731 0.000000
vn 0.785886 0.618371 0.000000
vn 0.680598 0.618371 0.392943
vn 0.956501 0.291731 0.000000
vn 0.828354 0.291731 -0.478250
vn 0.680598 0.618371 -0.392943
vn 0.785886 0.618371 0.000000
vn 0.412544 -0.565005 -0.714547
vn 0.714547 -0.565005 -0.412544
vn 0.000000 -1.000000 0.000000
vn 0.000000 -1.000000 0.000000
vn 0.000000 -0.565005 -0.825087
vn 0.412544 -0.565005 -0.714547
vn 0.000000 -1.000000 0.000000
vn 0.000000 -1.000000 0.000000
vn -0.412544 -0.565005 -0.714547
vn 0.000000 -0.565005 -0.825087
vn 0.000000 -1.000000 0.000000
vn 0.000000 -1.000000 0.000000
vn -0.714547 -0.565005 -0.412544
vn -0.412544 -0.565005 -0.714547
vn 0.000000 -1.000000 0.000000
vn 0.000000 -1.000000 0.000000
vn -0.825087 -0.565005 0.000000
vn -0.714547 -0.565005 -0.412544
vn 0.000000 -1.000000 0.000000
vn 0.000000 -1.000000 0.000000
vn -0.714547 -0.565005 0.412544
vn -0.825087 -0.565005 0.000000
vn 0.000000 -1.000000 0.000000
vn 0.000000 -1.000000 0.000000
vn -0.412544 -0.565005 0.714547
vn -0.714547 -0.565005 0.412544
vn 0.000000 -1.000000 0.000000
vn 0.000000 -1.000000 0.000000
vn 0.000000 -0.565005 0.825087
vn -0.412544 -0.565005 0.714547
vn 0.000000 -1.000000 0.000000
vn 0.000000 -1.000000 0.000000
vn 0.412544 -0.565005 0.714547
vn 0.000000 -0.565005 0.825087
vn 0.000000 -1.000000 0.000000
vn 0.000000 -1.000000 0.000000
vn 0.714547 -0.565005 0.412544
vn 0.412544 -0.565005 0.714547
vn 0.000000 -1.000000 0.000000
vn 0.000000 -1.000000 0.000000
vn 0.825087 -0.565005 0.000000
vn 0.714547 -0.565005 0.412544
vn 0.000000 -1.000000 0.000000
vn 0.000000 -1.000000 0.000000
vn 0.714547 -0.565005 -0.412544
vn 0.825087 -0.565005 0.000000
vn 0.000000 -1.000000 0.000000
vn 0.000000 -1.000000 0.000000
vn 0.863081 0.082395 -0.498300
vn 0.498300 0.082395 -0.863081
vn 0.498300 0.082395 -0.863081
vn 0.863081 0.082395 -0.498300
vn 0.498300 0.082395 -0.863081
vn 0.000000 0.082395 -0.996600
vn 0.000000 0.082395 -0.996600
vn 0.498300 0.082395 -0.863081
vn 0.000000 0.082395 -0.996600
vn -0.498300 0.082395 -0.863081
vn -0.498300 0.082395 -0.863081
vn 0.000000 0.082395 -0.996600
vn -0.498300 0.082395 -0.863081
vn -0.863081 0.082395 -0.498300
vn -0.863081 0.082395 -0.498300
vn -0.498300 0.082395 -0.863081
vn -0.863081 0.082395 -0.498300
vn -0.996600 0.082395 0.000000
vn -0.996600 0.082395 0.000000
vn -0.863081 0.082395 -0.498300
vn -0.996600 0.082395 0.000000
vn -0.863081 0.082395 0.498300
vn -0.863081 0.082395 0.498300
vn -0.996600 0.082395 0.000000
vn -0.863081 0.082395 0.498300
vn -0.498300 0.082395 0.863081
vn -0.498300 0.082395 0.863081
vn -0.863081 0.082395 0.498300
vn -0.498300 0.082395 0.863081
vn 0.000000 0.082395 0.996600
vn 0.000000 0.082395 0.996600
vn -0.498300 0.082395 0.863081
vn 0.000000 0.082395 0.996600
vn 0.498300 0.082395 0.863081
vn 0.498300 0.082395 0.863081
vn 0.000000 0.082395 0.996600
vn 0.498300 0.082395 0.863081
vn 0.863081 0.082395 0.498300
vn 0.863081 0.082395 0.498300
vn 0.498300 0.082395 0.863081
vn 0.863081 0.082395 0.498300
vn 0.996600 0.082395 0.000000
vn 0.996600 0.082395 0.000000
vn 0.863081 0.082395 0.498300
vn 0.996600 0.082395 0.000000
vn 0.863081 0.082395 -0.498300
vn 0.863081 0.082395 -0.498300
vn 0.996600 0.082395 0.000000
vn 0.714547 -0.565005 -0.412544
vn 0.412544 -0.565005 -0.714547
vn 0.495747 -0.130150 -0.858659
vn 0.858659 -0.130150 -0.495747
vn 0.412544 -0.565005 -0.714547
vn 0.000000 -0.565005 -0.825087
vn 0.000000 -0.130150 -0.991494
vn 0.495747 -0.130150 -0.858659
vn 0.000000 -0.565005 -0.825087
vn -0.412544 -0.565005 -0.714547
vn -0.495747 -0.130150 -0.858659
vn 0.000000 -0.130150 -0.991494
vn -0.412544 -0.565005 -0.714547
vn -0.714547 -0.565005 -0.412544
vn -0.858659 -0.130150 -0.495747
vn -0.495747 -0.130150 -0.858659
vn -0.714547 -0.565005 -0.412544
vn -0.825087 -0.565005 0.000000
vn -0.991494 -0.130150 0.000000
vn -0.858659 -0.130150 -0.495747
vn -0.825087 -0.565005 0.000000
vn -0.714547 -0.565005 0.412544
vn -0.858659 -0.130150 0.495747
vn -0.991494 -0.130150 0.000000
vn -0.714547 -0.565005 0.412544
vn -0.412544 -0.565005 0.714547
vn -0.495747 -0.130150 0.858659
vn -0.858659 -0.130150 0.495747
vn -0.412544 -0.565005 0.714547
vn 0.000000 -0.565005 0.825087
vn 0.000000 -0.130150 0.991494
vn -0.495747 -0.130150 0.858659
vn 0.000000 -0.565005 0.825087
vn 0.412544 -0.565005 0.714547
vn 0.495747 -0.130150 0.858659
vn 0.000000 -0.130150 0.991494
vn 0.412544 -0.565005 0.714547
vn 0.714547 -0.565005 0.412544
vn 0.858659 -0.130150 0.495747
vn 0.495747 -0.130150 0.858659
vn 0.714547 -0.565005 0.412544
vn 0.825087 -0.565005 0.000000
vn 0.991494 -0.130150 0.000000
vn 0.858659 -0.130150 0.495747
vn 0.825087 -0.565005 0.000000
vn 0.714547 -0.565005 -0.412544
vn 0.858659 -0.130150 -0.495747
vn 0.991494 -0.130150 0.000000
vn 0.858659 -0.130150 -0.495747
vn 0.495747 -0.130150 -0.858659
vn 0.478250 0.291731 -0.828354
vn 0.828354 0.291731 -0.478250
vn 0.495747 -0.130150 -0.858659
vn 0.000000 -0.130150 -0.991494
vn 0.000000 0.291731 -0.956501
vn 0.478250 0.291731 -0.828354
vn 0.000000 -0.130150 -0.991494
vn -0.495747 -0.130150 -0.858659
vn -0.478250 0.291731 -0.828354
vn 0.000000 0.291731 -0.956501
vn -0.495747 -0.130150 -0.858659
vn -0.858659 -0.130150 -0.495747
vn -0.828354 0.291731 -0.478250
vn -0.478250 0.291731 -0.828354
vn -0.858659 -0.130150 -0.495747
vn -0.991494 -0.130150 0.000000
vn -0.956501 0.291731 -0.000000
vn -0.828354 0.291731 -0.478250
vn -0.991494 -0.130150 0.000000
vn -0.858659 -0.130150 0.495747
vn -0.828354 0.291731 0.478250
vn -0.956501 0.291731 -0.000000
vn -0.858659 -0.130150 0.495747
vn -0.495747 -0.130150 0.858659
vn -0.478250 0.291731 0.828354
vn -0.828354 0.291731 0.478250
vn -0.495747 -0.130150 0.858659
vn 0.000000 -0.130150 0.991494
vn 0.000000 0.291731 0.956501
vn -0.478250 0.291731 0.828354
vn 0.000000 -0.130150 0.991494
vn 0.495747 -0.130150 0.858659
vn 0.478250 0.291731 0.828354
vn 0.000000 0.291731 0.956501
vn 0.495747 -0.130150 0.858659
vn 0.858659 -0.130150 0.495747
vn 0.828354 0.291731 0.478250
vn 0.478250 0.291731 0.828354
vn 0.858659 -0.130150 0.495747
vn 0.991494 -0.130150 0.000000
vn 0.956501 0.291731 0.000000
vn 0.828354 0.291731 0.478250
vn 0.991494 -0.130150 0.000000
vn 0.858659 -0.130150 -0.495747
vn 0.828354 0.291731 -0.478250
vn 0.956501 0.291731 0.000000
vn 0.680598 0.618371 -0.392943
vn 0.392943 0.618371 -0.680598
vn 0.000000 1.000000 0.000000
vn 0.392943 0.618371 -0.680598
vn -0.000000 0.618371 -0.785887
vn 0.000000 1.000000 0.000000
vn -0.000000 0.618371 -0.785887
vn -0.392943 0.618371 -0.680598
vn 0.000000 1.000000 0.000000
vn -0.392943 0.618371 -0.680598
vn -0.680598 0.618371 -0.392943
vn 0.000000 1.000000 0.000000
vn -0.680598 0.618371 -0.392943
vn -0.785887 0.618371 -0.000000
vn 0.000000 1.000000 0.000000
vn -0.785887 0.618371 -0.000000
vn -0.680598 0.618371 0.392943
vn 0.000000 1.000000 0.000000
vn -0.680598 0.618371 0.392943
vn -0.392943 0.618371 0.680598
vn 0.000000 1.000000 0.000000
vn -0.392943 0.618371 0.680598
vn 0.000000 0.618371 0.785886
vn 0.000000 1.000000 0.000000
vn 0.000000 0.618371 0.785886
vn 0.392943 0.618371 0.680598
vn 0.000000 1.000000 0.000000
vn 0.392943 0.618371 0.680598
vn 0.680598 0.618371 0.392943
vn 0.000000 1.000000 0.000000
vn 0.680598 0.618371 0.392943
vn 0.785886 0.618371 0.000000
vn 0.000000 1.000000 0.000000
vn 0.785886 0.618371 0.000000
vn 0.680598 0.618371 -0.392943
vn 0.000000 1.000000 0.000000
s off
g Tree_2_Mesh
f 73/1/1 74/2/2 14/3/3 13/4/4
f 74/2/5 75/5/6 15/6/7 14/3/8
f 75/7/9 76/8/10 16/9/11 15/10/12
f 76/8/13 77/11/14 17/12/15 16/9/16
f 77/11/17 78/13/18 18/14/19 17/12/20
f 78/13/21 79/15/22 19/16/23 18/14/24
f 79/15/25 80/17/26 20/18/27 19/16/28
f 80/17/29 81/19/30 21/20/31 20/18/32
f 81/19/33 82/21/34 22/22/35 21/20/36
f 82/21/37 83/23/38 23/24/39 22/22/40
f 83/23/41 84/25/42 24/26/43 23/24/44
f 84/25/45 73/1/46 13/4/47 24/26/48
f 2/27/49 1/28/50 25/29/51 26/30/52
f 3/31/53 2/27/54 26/30/55 27/32/56
f 4/33/57 3/34/58 27/35/59 28/36/60
f 5/37/61 4/33/62 28/36/63 29/38/64
f 6/39/65 5/37/66 29/38/67 30/40/68
f 7/41/69 6/39/70 30/40/71 31/42/72
f 8/43/73 7/41/74 31/42/75 32/44/76
f 9/45/77 8/43/78 32/44/79 33/46/80
f 10/47/81 9/45/82 33/46/83 34/48/84
f 11/49/85 10/47/86 34/48/87 35/50/88
f 12/51/89 11/49/90 35/50/91 36/52/92
f 1/28/93 12/51/94 36/52/95 25/29/96
f 37/53/97 38/54/98 50/55/99 49/56/100
f 38/54/101 39/57/102 51/58/103 50/55/104
f 39/57/105 40/59/106 52/60/107 51/58/108
f 40/59/109 41/61/110 53/62/111 52/60/112
f 41/61/113 42/63/114 54/64/115 53/62/116
f 42/63/117 43/65/118 55/66/119 54/64/120
f 43/65/121 44/67/122 56/68/123 55/66/124
f 44/67/125 45/69/126 57/70/127 56/68/128
f 45/69/129 46/71/130 58/72/131 57/70/132
f 46/71/133 47/73/134 59/74/135 58/72/136
f 47/75/137 48/76/138 60/77/139 59/78/140
f 48/76/141 37/53/142 49/56/143 60/77/144
f 1/28/145 2/27/146 62/79/147 61/80/148
f 2/27/149 3/31/150 63/81/151 62/79/152
f 3/34/153 4/33/154 64/82/155 63/83/156
f 4/33/157 5/37/158 65/84/159 64/82/160
f 5/37/161 6/39/162 66/85/163 65/84/164
f 6/39/165 7/41/166 67/86/167 66/85/168
f 7/41/169 8/43/170 68/87/171 67/86/172
f 8/43/173 9/45/174 69/88/175 68/87/176
f 9/45/177 10/47/178 70/89/179 69/88/180
f 10/47/181 11/49/182 71/90/183 70/89/184
f 11/49/185 12/51/186 72/91/187 71/90/188
f 12/51/189 1/28/190 61/80/191 72/91/192
f 61/80/193 62/79/194 74/2/195 73/1/196
f 62/79/197 63/81/198 75/5/199 74/2/200
f 63/83/201 64/82/202 76/8/203 75/7/204
f 64/82/205 65/84/206 77/11/207 76/8/208
f 65/84/209 66/85/210 78/13/211 77/11/212
f 66/85/213 67/86/214 79/15/215 78/13/216
f 67/86/217 68/87/218 80/17/219 79/15/220
f 68/87/221 69/88/222 81/19/223 80/17/224
f 69/88/225 70/89/226 82/21/227 81/19/228
f 70/89/229 71/90/230 83/23/231 82/21/232
f 71/90/233 72/91/234 84/25/235 83/23/236
f 72/91/237 61/80/238 73/1/239 84/25/240
f 13/92/241 14/93/242 85/94/243
f 14/93/244 15/95/245 85/94/246
f 15/95/247 16/96/248 85/94/249
f 16/96/250 17/97/251 85/94/252
f 17/97/253 18/98/254 85/94/255
f 18/98/256 19/99/257 85/94/258
f 19/99/259 20/100/260 85/94/261
f 20/100/262 21/101/263 85/94/264
f 21/101/265 22/102/266 85/94/267
f 22/102/268 23/103/269 85/94/270
f 23/103/271 24/104/272 85/94/273
f 24/104/274 13/92/275 85/94/276
