# This file uses centimeters as units for non-parametric coordinates.

g default
v 1.044100 2.706536 -0.548589
v 0.642504 2.706536 -0.950185
v 0.093915 2.706536 -1.097179
v -0.454675 2.706536 -0.950185
v -0.856270 2.706536 -0.548589
v -1.003265 2.706536 0.000000
v -0.856270 2.706536 0.548589
v -0.454675 2.706536 0.950185
v 0.093915 2.706536 1.097179
v 0.642504 2.706536 0.950185
v 1.044100 2.706536 0.548589
v 1.191094 2.706536 0.000000
v 0.733689 5.951273 -0.369374
v 0.463289 5.951273 -0.639775
v 0.093915 5.951273 -0.738748
v -0.275459 5.951273 -0.639775
v -0.545860 5.951273 -0.369374
v -0.644834 5.951273 0.000000
v -0.545860 5.951273 0.369374
v -0.275459 5.951273 0.639775
v 0.093915 5.951273 0.738748
v 0.463289 5.951273 0.639775
v 0.733689 5.951273 0.369374
v 0.832663 5.951273 0.000000
v 0.381339 2.706536 -0.165944
v 0.259859 2.706536 -0.287424
v 0.093915 2.706536 -0.331888
v -0.072029 2.706536 -0.287424
v -0.193509 2.706536 -0.165944
v -0.237973 2.706536 0.000000
v -0.193509 2.706536 0.165944
v -0.072029 2.706536 0.287424
v 0.093915 2.706536 0.331888
v 0.259859 2.706536 0.287424
v 0.381339 2.706536 0.165944
v 0.425803 2.706536 0.000000
v 0.896805 -0.017718 -0.262045
v 0.704975 -0.017718 -0.453875
v 0.442930 -0.017718 -0.524090
v 0.180886 -0.017718 -0.453875
v -0.010945 -0.017718 -0.262045
v -0.081159 -0.017718 0.000000
v -0.010945 -0.017718 0.262045
v 0.180886 -0.017718 0.453875
v 0.442930 -0.017718 0.524090
v 0.704975 -0.017718 0.453875
v 0.896805 -0.017718 0.262045
v 0.967020 -0.017718 0.000000
v 0.355155 3.610406 -0.150827
v 0.244742 3.610406 -0.261240
v 0.093915 3.610406 -0.301654
v -0.056912 3.610406 -0.261240
v -0.167325 3.610406 -0.150827
v -0.207739 3.610406 0.000000
v -0.167325 3.610406 0.150827
v -0.056912 3.610406 0.261240
v 0.093915 3.610406 0.301654
v 0.244742 3.610406 0.261240
v 0.355155 3.610406 0.150827
v 0.395569 3.610406 0.000000
v 1.603718 3.826774 -0.871685
v 0.965600 3.826774 -1.509803
v 0.093915 3.826774 -1.743370
v -0.777770 3.826774 -1.509803
v -1.415888 3.826774 -0.871685
v -1.649456 3.826774 0.000000
v -1.415888 3.826774 0.871685
v -0.777770 3.826774 1.509803
v 0.093915 3.826774 1.743370
v 0.965600 3.826774 1.509803
v 1.603718 3.826774 0.871685
v 1.837285 3.826774 0.000000
v 1.452159 5.079605 -0.784183
v 0.878097 5.079605 -1.358244
v 0.093915 5.079605 -1.568365
v -0.690268 5.079605 -1.358244
v -1.264330 5.079605 -0.784183
v -1.474450 5.079605 0.000000
v -1.264330 5.079605 0.784183
v -0.690268 5.079605 1.358244
v 0.093915 5.079605 1.568365
v 0.878097 5.079605 1.358244
v 1.452159 5.079605 0.784183
v 1.662280 5.079605 0.000000
v 0.093915 6.414365 0.000000
v 0.828464 1.464219 -0.216617
v 0.669890 1.464219 -0.375192
v 0.453273 1.464219 -0.433234
v 0.236656 1.464219 -0.375192
v 0.078081 1.464219 -0.216617
v 0.020039 1.464219 0.000000
v 0.078081 1.464219 0.216617
v 0.236656 1.464219 0.375192
v 0.453273 1.464219 0.433234
v 0.669890 1.464219 0.375192
v 0.828464 1.464219 0.216617
v 0.886507 1.464219 0.000000
vt 0.516602 0.178437
vt 0.501626 0.252757
vt 0.443291 0.245647
vt 0.456010 0.172004
vt 0.489952 0.327433
vt 0.432535 0.321077
vt 0.482377 0.402229
vt 0.425267 0.397427
vt 0.479099 0.476919
vt 0.422072 0.473970
vt 0.479953 0.551335
vt 0.422949 0.550098
vt 0.484470 0.625387
vt 0.427404 0.625274
vt 0.491762 0.699073
vt 0.434317 0.698945
vt 0.500178 0.772406
vt 0.441489 0.770366
vt 0.506618 0.845066
vt 0.444695 0.838022
vt 0.505162 0.914729
vt 0.435455 0.897194
vt 0.546388 0.031275
vt 0.532933 0.104638
vt 0.467482 0.101131
vt 0.471303 0.034176
vt 0.726240 0.280132
vt 0.749905 0.203206
vt 0.909442 0.326358
vt 0.899849 0.367367
vt 0.711029 0.351906
vt 0.893836 0.411935
vt 0.702275 0.420718
vt 0.890664 0.458440
vt 0.698675 0.488275
vt 0.889927 0.505877
vt 0.699442 0.556096
vt 0.891429 0.553456
vt 0.704199 0.625824
vt 0.895121 0.600366
vt 0.712949 0.699564
vt 0.901133 0.645576
vt 0.726151 0.780259
vt 0.909912 0.687564
vt 0.745045 0.872187
vt 0.922516 0.723835
vt 0.773561 0.982245
vt 0.941049 0.749860
vt 0.784945 0.118143
vt 0.835496 0.020106
vt 0.943639 0.270959
vt 0.923730 0.291996
vt 0.063390 0.453461
vt 0.091712 0.453461
vt 0.091712 0.664825
vt 0.063390 0.664825
vt 0.120302 0.453461
vt 0.120302 0.664825
vt 0.149106 0.453461
vt 0.149106 0.664825
vt 0.178074 0.453461
vt 0.178074 0.664825
vt 0.207152 0.453461
vt 0.207152 0.664825
vt 0.236287 0.453461
vt 0.236287 0.664825
vt 0.265427 0.453461
vt 0.265427 0.664825
vt 0.294518 0.453461
vt 0.294518 0.664825
vt 0.323507 0.453461
vt 0.323507 0.664825
vt 0.352342 0.453461
vt 0.352342 0.664825
vt 0.007754 0.453461
vt 0.035387 0.453461
vt 0.035387 0.664825
vt 0.007754 0.664825
vt 0.595043 0.264142
vt 0.613633 0.188738
vt 0.581898 0.337611
vt 0.573833 0.409918
vt 0.570421 0.481642
vt 0.571239 0.553315
vt 0.575856 0.625569
vt 0.583754 0.699277
vt 0.594160 0.775672
vt 0.605780 0.856345
vt 0.616789 0.942809
vt 0.637745 0.110255
vt 0.666628 0.026630
vt 0.701015 0.595251
vt 0.656213 0.595251
vt 0.678614 0.511649
vt 0.617413 0.572850
vt 0.595012 0.534050
vt 0.595012 0.489248
vt 0.617413 0.450448
vt 0.656213 0.428047
vt 0.701015 0.428047
vt 0.739815 0.450448
vt 0.762216 0.489248
vt 0.762216 0.534050
vt 0.739815 0.572850
vt 0.063390 0.307515
vt 0.091712 0.307515
vt 0.120302 0.307515
vt 0.149107 0.307515
vt 0.178074 0.307515
vt 0.207152 0.307515
vt 0.236287 0.307515
vt 0.265427 0.307515
vt 0.294518 0.307515
vt 0.323507 0.307515
vt 0.352342 0.307515
vt 0.007754 0.307515
vt 0.035387 0.307515
vn 0.809604 0.355043 -0.467425
vn 0.467425 0.355043 -0.809604
vn 0.348920 0.716254 -0.604347
vn 0.604348 0.716253 -0.348920
vn 0.467425 0.355043 -0.809604
vn 0.000000 0.355043 -0.934850
vn 0.000000 0.716253 -0.697840
vn 0.348920 0.716254 -0.604347
vn 0.000000 0.355043 -0.934850
vn -0.467425 0.355043 -0.809604
vn -0.348920 0.716253 -0.604347
vn 0.000000 0.716253 -0.697840
vn -0.467425 0.355043 -0.809604
vn -0.809604 0.355043 -0.467425
vn -0.604348 0.716253 -0.348920
vn -0.348920 0.716253 -0.604347
vn -0.809604 0.355043 -0.467425
vn -0.934850 0.355043 0.000000
vn -0.697840 0.716253 0.000000
vn -0.604348 0.716253 -0.348920
vn -0.934850 0.355043 0.000000
vn -0.809604 0.355043 0.467425
vn -0.604347 0.716254 0.348920
vn -0.697840 0.716253 0.000000
vn -0.809604 0.355043 0.467425
vn -0.467425 0.355043 0.809604
vn -0.348920 0.716253 0.604347
vn -0.604347 0.716254 0.348920
vn -0.467425 0.355043 0.809604
vn 0.000000 0.355043 0.934850
vn 0.000000 0.716253 0.697840
vn -0.348920 0.716253 0.604347
vn 0.000000 0.355043 0.934850
vn 0.467425 0.355043 0.809604
vn 0.348920 0.716253 0.604348
vn 0.000000 0.716253 0.697840
vn 0.467425 0.355043 0.809604
vn 0.809604 0.355043 0.467425
vn 0.604347 0.716253 0.348920
vn 0.348920 0.716253 0.604348
vn 0.809604 0.355043 0.467425
vn 0.934850 0.355043 0.000000
vn 0.697840 0.716253 0.000000
vn 0.604347 0.716253 0.348920
vn 0.934850 0.355043 0.000000
vn 0.809604 0.355043 -0.467425
vn 0.604348 0.716253 -0.348920
vn 0.697840 0.716253 0.000000
vn 0.382589 -0.643820 -0.662663
vn 0.662663 -0.643820 -0.382588
vn 0.000000 -1.000000 0.000000
vn 0.000000 -1.000000 0.000000
vn 0.000000 -0.643820 -0.765177
vn 0.382589 -0.643820 -0.662663
vn 0.000000 -1.000000 0.000000
vn 0.000000 -1.000000 0.000000
vn -0.382589 -0.643820 -0.662663
vn 0.000000 -0.643820 -0.765177
vn 0.000000 -1.000000 0.000000
vn 0.000000 -1.000000 0.000000
vn -0.662663 -0.643820 -0.382589
vn -0.382589 -0.643820 -0.662663
vn 0.000000 -1.000000 0.000000
vn 0.000000 -1.000000 0.000000
vn -0.765177 -0.643820 0.000000
vn -0.662663 -0.643820 -0.382589
vn 0.000000 -1.000000 0.000000
vn 0.000000 -1.000000 0.000000
vn -0.662663 -0.643820 0.382589
vn -0.765177 -0.643820 0.000000
vn 0.000000 -1.000000 0.000000
vn 0.000000 -1.000000 0.000000
vn -0.382589 -0.643820 0.662663
vn -0.662663 -0.643820 0.382589
vn 0.000000 -1.000000 0.000000
vn 0.000000 -1.000000 0.000000
vn 0.000000 -0.643820 0.765177
vn -0.382589 -0.643820 0.662663
vn 0.000000 -1.000000 0.000000
vn 0.000000 -1.000000 0.000000
vn 0.382589 -0.643820 0.662663
vn 0.000000 -0.643820 0.765177
vn 0.000000 -1.000000 0.000000
vn 0.000000 -1.000000 0.000000
vn 0.662663 -0.643820 0.382588
vn 0.382589 -0.643820 0.662663
vn 0.000000 -1.000000 0.000000
vn 0.000000 -1.000000 0.000000
vn 0.765177 -0.643820 0.000000
vn 0.662663 -0.643820 0.382588
vn 0.000000 -1.000000 0.000000
vn 0.000000 -1.000000 0.000000
vn 0.662663 -0.643820 -0.382588
vn 0.765177 -0.643820 0.000000
vn 0.000000 -1.000000 0.000000
vn 0.000000 -1.000000 0.000000
vn 0.862061 0.132586 -0.489154
vn 0.508382 0.104230 -0.854800
vn 0.475250 0.140263 -0.868599
vn 0.841879 0.201016 -0.500832
vn 0.508382 0.104230 -0.854800
vn 0.014881 0.063575 -0.997866
vn -0.026955 0.056674 -0.998029
vn 0.475250 0.140263 -0.868599
vn 0.014881 0.063575 -0.997866
vn -0.488711 0.020825 -0.872197
vn -0.520294 -0.025847 -0.853596
vn -0.026955 0.056674 -0.998029
vn -0.488711 0.020825 -0.872197
vn -0.862243 -0.011671 -0.506361
vn -0.869769 -0.084551 -0.486161
vn -0.520294 -0.025847 -0.853596
vn -0.862243 -0.011671 -0.506361
vn -0.999717 -0.023794 0.000000
vn -0.994415 -0.105539 0.000000
vn -0.869769 -0.084551 -0.486161
vn -0.999717 -0.023794 0.000000
vn -0.862243 -0.011671 0.506361
vn -0.869769 -0.084551 0.486161
vn -0.994415 -0.105539 0.000000
vn -0.862243 -0.011671 0.506361
vn -0.488711 0.020825 0.872197
vn -0.520294 -0.025847 0.853596
vn -0.869769 -0.084551 0.486161
vn -0.488711 0.020825 0.872197
vn 0.014881 0.063575 0.997866
vn -0.026955 0.056674 0.998029
vn -0.520294 -0.025847 0.853596
vn 0.014881 0.063575 0.997866
vn 0.508382 0.104230 0.854800
vn 0.475250 0.140263 0.868599
vn -0.026955 0.056674 0.998029
vn 0.508382 0.104230 0.854800
vn 0.862061 0.132586 0.489154
vn 0.841879 0.201016 0.500832
vn 0.475250 0.140263 0.868599
vn 0.862061 0.132586 0.489154
vn 0.989772 0.142662 0.000000
vn 0.974821 0.222989 0.000000
vn 0.841879 0.201016 0.500832
vn 0.989772 0.142662 0.000000
vn 0.862061 0.132586 -0.489154
vn 0.841879 0.201016 -0.500832
vn 0.974821 0.222989 0.000000
vn 0.662663 -0.643820 -0.382588
vn 0.382589 -0.643820 -0.662663
vn 0.493700 -0.158243 -0.855114
vn 0.855114 -0.158243 -0.493700
vn 0.382589 -0.643820 -0.662663
vn 0.000000 -0.643820 -0.765177
vn 0.000000 -0.158243 -0.987400
vn 0.493700 -0.158243 -0.855114
vn 0.000000 -0.643820 -0.765177
vn -0.382589 -0.643820 -0.662663
vn -0.493700 -0.158243 -0.855114
vn 0.000000 -0.158243 -0.987400
vn -0.382589 -0.643820 -0.662663
vn -0.662663 -0.643820 -0.382589
vn -0.855114 -0.158243 -0.493700
vn -0.493700 -0.158243 -0.855114
vn -0.662663 -0.643820 -0.382589
vn -0.765177 -0.643820 0.000000
vn -0.987400 -0.158243 0.000000
vn -0.855114 -0.158243 -0.493700
vn -0.765177 -0.643820 0.000000
vn -0.662663 -0.643820 0.382589
vn -0.855114 -0.158243 0.493700
vn -0.987400 -0.158243 0.000000
vn -0.662663 -0.643820 0.382589
vn -0.382589 -0.643820 0.662663
vn -0.493700 -0.158243 0.855114
vn -0.855114 -0.158243 0.493700
vn -0.382589 -0.643820 0.662663
vn 0.000000 -0.643820 0.765177
vn 0.000000 -0.158243 0.987400
vn -0.493700 -0.158243 0.855114
vn 0.000000 -0.643820 0.765177
vn 0.382589 -0.643820 0.662663
vn 0.493700 -0.158243 0.855114
vn 0.000000 -0.158243 0.987400
vn 0.382589 -0.643820 0.662663
vn 0.662663 -0.643820 0.382588
vn 0.855114 -0.158243 0.493700
vn 0.493700 -0.158243 0.855114
vn 0.662663 -0.643820 0.382588
vn 0.765177 -0.643820 0.000000
vn 0.987400 -0.158243 0.000000
vn 0.855114 -0.158243 0.493700
vn 0.765177 -0.643820 0.000000
vn 0.662663 -0.643820 -0.382588
vn 0.855114 -0.158243 -0.493700
vn 0.987400 -0.158243 0.000000
vn 0.855114 -0.158243 -0.493700
vn 0.493700 -0.158243 -0.855114
vn 0.467425 0.355043 -0.809604
vn 0.809604 0.355043 -0.467425
vn 0.493700 -0.158243 -0.855114
vn 0.000000 -0.158243 -0.987400
vn 0.000000 0.355043 -0.934850
vn 0.467425 0.355043 -0.809604
vn 0.000000 -0.158243 -0.987400
vn -0.493700 -0.158243 -0.855114
vn -0.467425 0.355043 -0.809604
vn 0.000000 0.355043 -0.934850
vn -0.493700 -0.158243 -0.855114
vn -0.855114 -0.158243 -0.493700
vn -0.809604 0.355043 -0.467425
vn -0.467425 0.355043 -0.809604
vn -0.855114 -0.158243 -0.493700
vn -0.987400 -0.158243 0.000000
vn -0.934850 0.355043 0.000000
vn -0.809604 0.355043 -0.467425
vn -0.987400 -0.158243 0.000000
vn -0.855114 -0.158243 0.493700
vn -0.809604 0.355043 0.467425
vn -0.934850 0.355043 0.000000
vn -0.855114 -0.158243 0.493700
vn -0.493700 -0.158243 0.855114
vn -0.467425 0.355043 0.809604
vn -0.809604 0.355043 0.467425
vn -0.493700 -0.158243 0.855114
vn 0.000000 -0.158243 0.987400
vn 0.000000 0.355043 0.934850
vn -0.467425 0.355043 0.809604
vn 0.000000 -0.158243 0.987400
vn 0.493700 -0.158243 0.855114
vn 0.467425 0.355043 0.809604
vn 0.000000 0.355043 0.934850
vn 0.493700 -0.158243 0.855114
vn 0.855114 -0.158243 0.493700
vn 0.809604 0.355043 0.467425
vn 0.467425 0.355043 0.809604
vn 0.855114 -0.158243 0.493700
vn 0.987400 -0.158243 0.000000
vn 0.934850 0.355043 0.000000
vn 0.809604 0.355043 0.467425
vn 0.987400 -0.158243 0.000000
vn 0.855114 -0.158243 -0.493700
vn 0.809604 0.355043 -0.467425
vn 0.934850 0.355043 0.000000
vn 0.604348 0.716253 -0.348920
vn 0.348920 0.716254 -0.604347
vn 0.000000 1.000000 0.000000
vn 0.348920 0.716254 -0.604347
vn 0.000000 0.716253 -0.697840
vn 0.000000 1.000000 0.000000
vn 0.000000 0.716253 -0.697840
vn -0.348920 0.716253 -0.604347
vn 0.000000 1.000000 0.000000
vn -0.348920 0.716253 -0.604347
vn -0.604348 0.716253 -0.348920
vn 0.000000 1.000000 0.000000
vn -0.604348 0.716253 -0.348920
vn -0.697840 0.716253 0.000000
vn 0.000000 1.000000 0.000000
vn -0.697840 0.716253 0.000000
vn -0.604347 0.716254 0.348920
vn 0.000000 1.000000 0.000000
vn -0.604347 0.716254 0.348920
vn -0.348920 0.716253 0.604347
vn 0.000000 1.000000 0.000000
vn -0.348920 0.716253 0.604347
vn 0.000000 0.716253 0.697840
vn 0.000000 1.000000 0.000000
vn 0.000000 0.716253 0.697840
vn 0.348920 0.716253 0.604348
vn 0.000000 1.000000 0.000000
vn 0.348920 0.716253 0.604348
vn 0.604347 0.716253 0.348920
vn 0.000000 1.000000 0.000000
vn 0.604347 0.716253 0.348920
vn 0.697840 0.716253 0.000000
vn 0.000000 1.000000 0.000000
vn 0.697840 0.716253 0.000000
vn 0.604348 0.716253 -0.348920
vn 0.000000 1.000000 0.000000
vn 0.864416 0.055182 -0.499739
vn 0.498298 0.057729 -0.865082
vn 0.508382 0.104230 -0.854800
vn 0.862061 0.132586 -0.489154
vn 0.498298 0.057729 -0.865082
vn -0.001157 0.061202 -0.998125
vn 0.014881 0.063575 -0.997866
vn 0.508382 0.104230 -0.854800
vn -0.001157 0.061202 -0.998125
vn -0.499822 0.064669 -0.863711
vn -0.488711 0.020825 -0.872197
vn 0.014881 0.063575 -0.997866
vn -0.499822 0.064669 -0.863711
vn -0.864357 0.067202 -0.498369
vn -0.862243 -0.011671 -0.506361
vn -0.488711 0.020825 -0.872197
vn -0.864357 0.067202 -0.498369
vn -0.997676 0.068129 -0.000000
vn -0.999717 -0.023794 0.000000
vn -0.862243 -0.011671 -0.506361
vn -0.997676 0.068129 -0.000000
vn -0.864357 0.067202 0.498368
vn -0.862243 -0.011671 0.506361
vn -0.999717 -0.023794 0.000000
vn -0.864357 0.067202 0.498368
vn -0.499822 0.064669 0.863711
vn -0.488711 0.020825 0.872197
vn -0.862243 -0.011671 0.506361
vn -0.499822 0.064669 0.863711
vn -0.001157 0.061202 0.998125
vn 0.014881 0.063575 0.997866
vn -0.488711 0.020825 0.872197
vn -0.001157 0.061202 0.998125
vn 0.498298 0.057729 0.865082
vn 0.508382 0.104230 0.854800
vn 0.014881 0.063575 0.997866
vn 0.498298 0.057729 0.865082
vn 0.864416 0.055182 0.499739
vn 0.862061 0.132586 0.489154
vn 0.508382 0.104230 0.854800
vn 0.864416 0.055182 0.499739
vn 0.998527 0.054250 0.000000
vn 0.989772 0.142662 0.000000
vn 0.862061 0.132586 0.489154
vn 0.998527 0.054250 0.000000
vn 0.864416 0.055182 -0.499739
vn 0.862061 0.132586 -0.489154
vn 0.989772 0.142662 0.000000
s off
g Tree_3_Mesh
f 73/1/1 74/2/2 14/3/3 13/4/4
f 74/2/5 75/5/6 15/6/7 14/3/8
f 75/5/9 76/7/10 16/8/11 15/6/12
f 76/7/13 77/9/14 17/10/15 16/8/16
f 77/9/17 78/11/18 18/12/19 17/10/20
f 78/11/21 79/13/22 19/14/23 18/12/24
f 79/13/25 80/15/26 20/16/27 19/14/28
f 80/15/29 81/17/30 21/18/31 20/16/32
f 81/17/33 82/19/34 22/20/35 21/18/36
f 82/19/37 83/21/38 23/22/39 22/20/40
f 83/23/41 84/24/42 24/25/43 23/26/44
f 84/24/45 73/1/46 13/4/47 24/25/48
f 2/27/49 1/28/50 25/29/51 26/30/52
f 3/31/53 2/27/54 26/30/55 27/32/56
f 4/33/57 3/31/58 27/32/59 28/34/60
f 5/35/61 4/33/62 28/34/63 29/36/64
f 6/37/65 5/35/66 29/36/67 30/38/68
f 7/39/69 6/37/70 30/38/71 31/40/72
f 8/41/73 7/39/74 31/40/75 32/42/76
f 9/43/77 8/41/78 32/42/79 33/44/80
f 10/45/81 9/43/82 33/44/83 34/46/84
f 11/47/85 10/45/86 34/46/87 35/48/88
f 12/49/89 11/50/90 35/51/91 36/52/92
f 1/28/93 12/49/94 36/52/95 25/29/96
f 86/53/97 87/54/98 50/55/99 49/56/100
f 87/54/101 88/57/102 51/58/103 50/55/104
f 88/57/105 89/59/106 52/60/107 51/58/108
f 89/59/109 90/61/110 53/62/111 52/60/112
f 90/61/113 91/63/114 54/64/115 53/62/116
f 91/63/117 92/65/118 55/66/119 54/64/120
f 92/65/121 93/67/122 56/68/123 55/66/124
f 93/67/125 94/69/126 57/70/127 56/68/128
f 94/69/129 95/71/130 58/72/131 57/70/132
f 95/71/133 96/73/134 59/74/135 58/72/136
f 96/75/137 97/76/138 60/77/139 59/78/140
f 97/76/141 86/53/142 49/56/143 60/77/144
f 1/28/145 2/27/146 62/79/147 61/80/148
f 2/27/149 3/31/150 63/81/151 62/79/152
f 3/31/153 4/33/154 64/82/155 63/81/156
f 4/33/157 5/35/158 65/83/159 64/82/160
f 5/35/161 6/37/162 66/84/163 65/83/164
f 6/37/165 7/39/166 67/85/167 66/84/168
f 7/39/169 8/41/170 68/86/171 67/85/172
f 8/41/173 9/43/174 69/87/175 68/86/176
f 9/43/177 10/45/178 70/88/179 69/87/180
f 10/45/181 11/47/182 71/89/183 70/88/184
f 11/50/185 12/49/186 72/90/187 71/91/188
f 12/49/189 1/28/190 61/80/191 72/90/192
f 61/80/193 62/79/194 74/2/195 73/1/196
f 62/79/197 63/81/198 75/5/199 74/2/200
f 63/81/201 64/82/202 76/7/203 75/5/204
f 64/82/205 65/83/206 77/9/207 76/7/208
f 65/83/209 66/84/210 78/11/211 77/9/212
f 66/84/213 67/85/214 79/13/215 78/11/216
f 67/85/217 68/86/218 80/15/219 79/13/220
f 68/86/221 69/87/222 81/17/223 80/15/224
f 69/87/225 70/88/226 82/19/227 81/17/228
f 70/88/229 71/89/230 83/21/231 82/19/232
f 71/91/233 72/90/234 84/24/235 83/23/236
f 72/90/237 61/80/238 73/1/239 84/24/240
f 13/92/241 14/93/242 85/94/243
f 14/93/244 15/95/245 85/94/246
f 15/95/247 16/96/248 85/94/249
f 16/96/250 17/97/251 85/94/252
f 17/97/253 18/98/254 85/94/255
f 18/98/256 19/99/257 85/94/258
f 19/99/259 20/100/260 85/94/261
f 20/100/262 21/101/263 85/94/264
f 21/101/265 22/102/266 85/94/267
f 22/102/268 23/103/269 85/94/270
f 23/103/271 24/104/272 85/94/273
f 24/104/274 13/92/275 85/94/276
f 37/105/277 38/106/278 87/54/279 86/53/280
f 38/106/281 39/107/282 88/57/283 87/54/284
f 39/107/285 40/108/286 89/59/287 88/57/288
f 40/108/289 41/109/290 90/61/291 89/59/292
f 41/109/293 42/110/294 91/63/295 90/61/296
f 42/110/297 43/111/298 92/65/299 91/63/300
f 43/111/301 44/112/302 93/67/303 92/65/304
f 44/112/305 45/113/306 94/69/307 93/67/308
f 45/113/309 46/114/310 95/71/311 94/69/312
f 46/114/313 47/115/314 96/73/315 95/71/316
f 47/116/317 48/117/318 97/76/319 96/75/320
f 48/117/321 37/105/322 86/53/323 97/76/324
